name C:\Users\antoi\Documents\MyRepositories\upper-imu-dc\Results\main_tracking\Case_88\kinematics.mot
datacolumns 10
datarows 28
range 3.45000000 3.72000000
endheader 
time	clav_prot	clav_elev	scapula_abduction	scapula_elevation	scapula_upward_rot	scapula_winging	plane_elv	shoulder_elv	axial_rot	
          3.45000000	        -46.03051184	          0.26348916	         -5.88192824	         -8.58309099	         76.11515790	        -10.47210119	         46.28585065	         94.29990990	        -11.15865744	
          3.46000000	        -46.02534514	          0.26311757	         -5.89173889	         -8.58481203	         76.09080336	        -10.47099516	         46.33181012	         94.29606507	        -11.10523892	
          3.47000000	        -46.01921079	          0.26371695	         -5.90210617	         -8.58597738	         76.06389425	        -10.47003746	         46.37898921	         94.29318792	        -11.05268493	
          3.48000000	        -46.01217026	          0.26523913	         -5.91317544	         -8.58662926	         76.03435592	        -10.46924645	         46.42693968	         94.29127642	        -11.00110148	
          3.49000000	        -46.00428405	          0.26762339	         -5.92508345	         -8.58681794	         76.00211976	        -10.46863256	         46.47522553	         94.29034008	        -10.95060657	
          3.50000000	        -45.99561231	          0.27080051	         -5.93795735	         -8.58659870	         75.96712710	        -10.46820043	         46.52343508	         94.29040061	        -10.90132017	
          3.51000000	        -45.98621477	          0.27469803	         -5.95191268	         -8.58602789	         75.92933306	        -10.46795123	         46.57119550	         94.29149151	        -10.85335291	
          3.52000000	        -45.97615131	          0.27924587	         -5.96705297	         -8.58515876	         75.88870996	        -10.46788573	         46.61818343	         94.29365751	        -10.80679705	
          3.53000000	        -45.96548243	          0.28438114	         -5.98346962	         -8.58403800	         75.84524979	        -10.46800682	         46.66413218	         94.29695439	        -10.76172021	
          3.54000000	        -45.95426806	          0.29005227	         -6.00123938	         -8.58270268	         75.79896610	        -10.46832082	         46.70883558	         94.30144813	        -10.71816473	
          3.55000000	        -45.94256573	          0.29622338	         -6.02042245	         -8.58117710	         75.74989383	        -10.46883866	         46.75215056	         94.30721363	        -10.67615159	
          3.56000000	        -45.93042618	          0.30287449	         -6.04105602	         -8.57947244	         75.69808856	        -10.46957347	         46.79399333	         94.31433277	        -10.63568598	
          3.57000000	        -45.91788997	          0.31000129	         -6.06315061	         -8.57758691	         75.64362406	        -10.47053857	         46.83433458	         94.32289132	        -10.59676953	
          3.58000000	        -45.90498261	          0.31761693	         -6.08668632	         -8.57550453	         75.58658729	        -10.47174601	         46.87319243	         94.33297611	        -10.55941746	
          3.59000000	        -45.89170959	          0.32575228	         -6.11160895	         -8.57319506	         75.52707304	        -10.47320413	         46.91062396	         94.34467047	        -10.52367285	
          3.60000000	        -45.87805109	          0.33445437	         -6.13782595	         -8.57061517	         75.46517759	        -10.47491417	         46.94671664	         94.35804933	        -10.48962075	
          3.61000000	        -45.86395726	          0.34378347	         -6.16520303	         -8.56771068	         75.40099224	        -10.47686645	         46.98158072	         94.37317385	        -10.45739997	
          3.62000000	        -45.84934707	          0.35381019	         -6.19356614	         -8.56441885	         75.33459755	        -10.47903875	         47.01534605	         94.39008480	        -10.42720761	
          3.63000000	        -45.83410649	          0.36461144	         -6.22270194	         -8.56067148	         75.26605769	        -10.48139358	         47.04815930	         94.40879797	        -10.39930074	
          3.64000000	        -45.81808786	          0.37626664	         -6.25236046	         -8.55639792	         75.19541453	        -10.48387634	         47.08018397	         94.42930191	        -10.37398955	
          3.65000000	        -45.80111380	          0.38885577	         -6.28226441	         -8.55152694	         75.12268316	        -10.48641713	         47.11160574	         94.45155438	        -10.35162328	
          3.66000000	        -45.78297890	          0.40245600	         -6.31211415	         -8.54598942	         75.04784796	        -10.48893032	         47.14263690	         94.47548206	        -10.33257871	
          3.67000000	        -45.76345245	          0.41713979	         -6.34159282	         -8.53971993	         74.97086117	        -10.49131535	         47.17352089	         94.50098025	        -10.31724269	
          3.68000000	        -45.74228554	          0.43297449	         -6.37037601	         -8.53265719	         74.89164510	        -10.49346063	         47.20453912	         94.52790991	        -10.30598881	
          3.69000000	        -45.71921683	          0.45001944	         -6.39813559	         -8.52474610	         74.81009855	        -10.49524501	         47.23601592	         94.55609276	        -10.29916106	
          3.70000000	        -45.69398278	          0.46832277	         -6.42454570	         -8.51593959	         74.72610988	        -10.49654123	         47.26832440	         94.58529959	        -10.29705634	
          3.71000000	        -45.66630945	          0.48792391	         -6.44929023	         -8.50619813	         74.63953017	        -10.49721463	         47.30189141	         94.61528820	        -10.29990718	
          3.72000000	        -45.63590819	          0.50885860	         -6.47207253	         -8.49548721	         74.55015244	        -10.49712479	         47.33719920	         94.64583564	        -10.30788524	
